HIERARCHY
ROOT hip
{
	OFFSET 0.000000 0.000000 0.000000
	CHANNELS 6 Xposition Yposition Zposition Xrotation Zrotation Yrotation 
	JOINT abdomen
	{
		OFFSET 0.000000 3.422050 0.000000
		CHANNELS 3 Xrotation Zrotation Yrotation 
		JOINT chest
		{
			OFFSET 0.000000 8.486693 -0.684411
			CHANNELS 3 Xrotation Zrotation Yrotation 
			JOINT neck
			{
				OFFSET 0.000000 10.266162 -0.273764
				CHANNELS 3 Xrotation Zrotation Yrotation 
				JOINT head
				{
					OFFSET 0.000000 3.148285 0.000000
					CHANNELS 3 Xrotation Zrotation Yrotation 
					End Site
					{
						OFFSET 0.000000 3.148289 0.000000
					}
				}
			}
			JOINT lCollar
			{
				OFFSET 3.422053 6.707223 -0.821293
				CHANNELS 3 Yrotation Zrotation Xrotation 
				JOINT lShldr
				{
					OFFSET 3.285171 0.000000 0.000000
					CHANNELS 3 Zrotation Yrotation Xrotation 
					JOINT lForeArm
					{
						OFFSET 10.129278 0.000000 0.000000
						CHANNELS 3 Yrotation Zrotation Xrotation 
						JOINT lHand
						{
							OFFSET 8.486692 0.000000 0.000000
							CHANNELS 3 Zrotation Yrotation Xrotation 
							End Site
							{
								OFFSET 4.106464 0.000000 0.000000
							}
						}
					}
				}
			}
			JOINT rCollar
			{
				OFFSET -3.558935 6.707223 -0.821293
				CHANNELS 3 Yrotation Zrotation Xrotation 
				JOINT rShldr
				{
					OFFSET -3.148289 0.000000 0.000000
					CHANNELS 3 Zrotation Yrotation Xrotation 
					JOINT rForeArm
					{
						OFFSET -10.266159 0.000000 0.000000
						CHANNELS 3 Yrotation Zrotation Xrotation 
						JOINT rHand
						{
							OFFSET -8.349810 0.000000 0.000000
							CHANNELS 3 Zrotation Yrotation Xrotation 
							End Site
							{
								OFFSET -4.106464 0.000000 0.000000
							}
						}
					}
				}
			}
		}
	}
	JOINT lThigh
	{
		OFFSET 5.338403 -1.642589 1.368821
		CHANNELS 3 Xrotation Zrotation Yrotation 
		JOINT lShin
		{
			OFFSET -2.053232 -20.121670 0.000000
			CHANNELS 3 Xrotation Zrotation Yrotation 
			JOINT lFoot
			{
				OFFSET 0.000000 -19.300380 -1.231939
				CHANNELS 3 Xrotation Yrotation Zrotation 
				End Site
				{
					OFFSET 0.000000 -2.463878 4.653993
				}
			}
		}
	}
	JOINT rThigh
	{
		OFFSET -5.338403 -1.642589 1.368821
		CHANNELS 3 Xrotation Zrotation Yrotation 
		JOINT rShin
		{
			OFFSET 2.053232 -20.121670 0.000000
			CHANNELS 3 Xrotation Zrotation Yrotation 
			JOINT rFoot
			{
				OFFSET 0.000000 -19.300380 -1.231939
				CHANNELS 3 Xrotation Yrotation Zrotation 
				End Site
				{
					OFFSET 0.000000 -2.463878 4.653993
				}
			}
		}
	}
}
MOTION
Frames: 8
Frame Time: 0.039918
0.783983 26.531691 15.100098 85.294968 0.003864 -179.996445 -22.523973 -2.326201 -0.674740 3.277528 -0.910216 0.653225 30.264309 0.000000 0.000000 -32.846802 0.000000 0.000000 14.724420 17.440800 6.297527 4.678020 57.213310 36.381767 4.274490 0.032571 30.428623 61.075783 0.260246 -0.406670 -15.950767 -18.125418 5.843803 -4.613719 -56.064175 36.300476 -4.610099 0.466190 30.468662 -61.467968 -0.044682 -0.273992 33.124710 46.383755 70.693947 64.956863 31.465387 -9.961291 26.113115 -33.826443 5.248165 31.640022 -44.647121 -68.671089 66.544426 -32.006237 9.141559 23.857866 31.956673 -3.673104 
0.783983 26.518023 14.974239 85.595581 0.003854 -179.996429 -22.073111 -2.326167 -0.674767 3.502654 -0.910233 0.653221 30.775696 0.000000 0.000000 -32.877590 0.000000 0.000000 15.415961 17.553669 6.042060 4.551248 56.640003 36.275837 4.078602 0.109932 30.428373 60.768581 0.229238 -0.553739 -16.773653 -18.237514 5.547086 -4.476507 -55.360790 36.187843 -4.396499 0.393496 30.467442 -61.123959 -0.039219 -0.393756 33.077007 46.217720 69.682747 65.117378 31.580296 -9.885920 25.543854 -33.627537 4.235244 31.649839 -44.445255 -67.790062 66.784897 -32.130363 9.020700 23.255255 31.738472 -2.766869 
0.783983 26.504356 14.848383 85.896187 0.003845 -179.996429 -21.622276 -2.326132 -0.674795 3.727777 -0.910251 0.653217 31.286085 0.000000 0.000000 -32.908371 0.000000 0.000000 16.108355 17.663567 5.785058 4.428281 56.066635 36.173763 3.882717 0.187291 30.428387 60.461456 0.197442 -0.700633 -17.597504 -18.345526 5.248574 -4.344091 -54.657345 36.080086 -4.182909 0.320800 30.466503 -60.779976 -0.033037 -0.513479 33.033672 46.051155 68.675056 65.278259 31.695023 -9.810081 24.980356 -33.420353 3.227347 31.663948 -44.243553 -66.912224 67.025993 -32.254047 8.899064 22.658325 31.512262 -1.865718 
0.783983 26.490690 14.722526 86.196800 0.003835 -179.996414 -21.171486 -2.326098 -0.674823 3.952895 -0.910269 0.653213 31.795456 0.000000 0.000000 -32.939156 0.000000 0.000000 16.801542 17.770483 5.526579 4.308929 55.493210 36.075363 3.686835 0.264649 30.428675 60.154446 0.164862 -0.847346 -18.422211 -18.449423 4.948357 -4.216196 -53.953938 35.976948 -3.969325 0.248103 30.465837 -60.436008 -0.026137 -0.633156 32.994717 45.884190 67.671059 65.439537 31.809574 -9.733772 24.422859 -33.205032 2.224715 31.682310 -44.042137 -66.037666 67.267731 -32.377300 8.776649 22.067263 31.278185 -0.969846 
0.783983 26.477022 14.596668 86.497391 0.003826 -179.996399 -20.720755 -2.326063 -0.674850 4.178005 -0.910287 0.653209 32.303795 0.000000 0.000000 -32.969936 0.000000 0.000000 17.495440 17.874371 5.266679 4.193023 54.919815 35.980469 3.490954 0.342003 30.429207 59.847538 0.131498 -0.993872 -19.247648 -18.549168 4.646530 -4.092568 -53.250622 35.878170 -3.755749 0.175406 30.465435 -60.092113 -0.018520 -0.752780 32.960087 45.716866 66.670822 65.601166 31.923935 -9.656986 23.871571 -32.981712 1.227581 31.704861 -43.841030 -65.166405 67.510109 -32.500114 8.653461 21.482267 31.036377 -0.079442 
0.783983 26.463356 14.470812 86.797966 0.003816 -179.996384 -20.270088 -2.326028 -0.674877 4.403108 -0.910305 0.653205 32.811073 0.000000 0.000000 -33.000717 0.000000 0.000000 18.189995 17.975229 5.005415 4.080400 54.346462 35.888935 3.295079 0.419352 30.430016 59.540741 0.097354 -1.140204 -20.073715 -18.644728 4.343190 -3.972973 -52.547443 35.783512 -3.542184 0.102711 30.465311 -59.748268 -0.010185 -0.872344 32.929756 45.549267 65.674461 65.763191 32.038109 -9.579729 23.326715 -32.750553 0.236165 31.731529 -43.640316 -64.298492 67.753098 -32.622475 8.529492 20.903500 30.786955 0.805318 
0.783983 26.449690 14.344954 87.098488 0.003807 -179.996384 -19.819506 -2.325993 -0.674904 4.628199 -0.910322 0.653200 33.317287 0.000000 0.000000 -33.031498 0.000000 0.000000 18.885130 18.073019 4.742843 3.970902 53.773170 35.800579 3.099208 0.496695 30.431086 59.234074 0.062430 -1.286336 -20.900288 -18.736084 4.038433 -3.857183 -51.844452 35.692745 -3.328628 0.030019 30.465458 -59.404465 -0.001134 -0.991841 32.903687 45.381470 64.682060 65.925583 32.152092 -9.501997 22.788473 -32.511692 -0.749329 31.762264 -43.440063 -63.433983 67.996750 -32.744385 8.404737 20.331123 30.530079 1.684270 
0.783983 26.436022 14.219097 87.399010 0.003797 -179.996368 -19.369022 -2.325957 -0.674930 4.853279 -0.910340 0.653196 33.822422 0.000000 0.000000 -33.062283 0.000000 0.000000 19.580782 18.167730 4.479028 3.864385 53.199970 35.715252 2.903344 0.574031 30.432426 58.927521 0.026729 -1.432261 -21.727251 -18.823204 3.732360 -3.745003 -51.141754 35.605701 -3.115085 -0.042668 30.465881 -59.060749 0.008632 -1.111265 32.881847 45.213573 63.693733 66.088341 32.265873 -9.423782 22.257036 -32.265289 -1.728700 31.797028 -43.240364 -62.572948 68.241005 -32.865833 8.279208 19.765297 30.265886 2.557257 
